<svg width="30" height="30" viewBox="0 0 30 30" fill="none" xmlns="http://www.w3.org/2000/svg">
<path d="M15 0C6.71512 0 0 6.71512 0 15C0 23.2849 6.71512 30 15 30C23.2849 30 30 23.2849 30 15C30 6.71512 23.2849 0 15 0ZM10.4302 22.8663H6.77616V11.1192H10.4302V22.8663ZM8.59884 9.50581C7.43023 9.50581 6.47965 8.55523 6.47965 7.38663C6.47965 6.21802 7.43023 5.26744 8.59884 5.26744C9.76744 5.26744 10.718 6.21802 10.718 7.38663C10.718 8.55523 9.76744 9.50581 8.59884 9.50581ZM24.0959 22.8663H20.4506V17.1541C20.4506 15.7936 20.4244 14.0407 18.5494 14.0407C16.6483 14.0407 16.3605 15.5233 16.3605 17.0581V22.875H12.7151V11.1192H16.2209V12.7238H16.2645C16.9797 11.5029 18.3052 10.7703 19.718 10.8227C23.4157 10.8227 24.0959 13.2558 24.0959 16.4215V22.8663Z" fill="#05264E"/>
</svg>
