<svg width="30" height="30" viewBox="0 0 30 30" fill="none" xmlns="http://www.w3.org/2000/svg">
<path d="M15.8629 15.075C15.6332 15.2823 15.3348 15.397 15.0254 15.397C14.716 15.397 14.4176 15.2823 14.1879 15.075L3.58789 5.4375C4.00384 5.15257 4.49621 5.00007 5.00039 5H25.0004C25.5046 5.00007 25.9969 5.15257 26.4129 5.4375L15.8629 15.075Z" fill="#05264E"/>
<path d="M27.5 7.82501V21.25C27.5 22.2446 27.1049 23.1984 26.4017 23.9017C25.6984 24.6049 24.7446 25 23.75 25H6.25C5.25544 25 4.30161 24.6049 3.59835 23.9017C2.89509 23.1984 2.5 22.2446 2.5 21.25V7.82501L13.35 17.725C13.8076 18.1224 14.3939 18.3401 15 18.3375C15.6136 18.3362 16.2053 18.1093 16.6625 17.7L27.5 7.82501Z" fill="#05264E"/>
</svg>
