<svg width="430" height="358" viewBox="0 0 430 358" fill="none" xmlns="http://www.w3.org/2000/svg">
<g clip-path="url(#clip0_228_1629)">
<path d="M191.421 68.3412C191.338 68.3412 191.255 68.3382 191.171 68.333C185.668 67.9794 166.836 65.3155 155.589 45.8694C154.758 44.434 154.922 42.6076 155.998 41.3258C165.39 33.6872 172.727 25.4202 177.058 16.2342C177.84 15.3023 179.013 14.7929 180.201 14.8138C181.42 14.8427 182.544 15.4169 183.284 16.3893C188.624 23.4057 199.166 35.8264 209.773 40.1812C210.965 40.6711 211.828 41.6652 212.141 42.9103C212.451 44.1448 212.164 45.4176 211.353 46.402L194.482 66.8879C193.724 67.8094 192.594 68.3412 191.421 68.3412Z" fill="#E6E6E6"/>
<path d="M159.479 42.5597C159.192 42.9028 159.139 43.392 159.349 43.7786C169.523 62.5138 187.713 63.9836 191.257 64.0877C191.598 64.1072 191.918 63.9536 192.134 63.6907L208.884 43.3523C209.121 43.0639 209.194 42.6961 209.085 42.341C208.975 41.9844 208.705 41.7184 208.343 41.6136C196.967 38.2889 185.031 22.8896 181.644 18.2487C181.445 17.9775 181.139 17.8149 180.805 17.8037C180.46 17.8003 180.147 17.9355 179.928 18.1962C175.081 27.6462 168.295 35.7877 159.479 42.5597Z" fill="white"/>
<path d="M167.913 46.9482L183.097 31.4673C184.134 30.409 182.508 28.7804 181.469 29.84L166.286 45.3209C165.248 46.3791 166.874 48.0077 167.913 46.9482Z" fill="#E6E6E6"/>
<path d="M177.077 51.3096C181.268 47.5538 184.909 43.2051 187.891 38.4333C188.678 37.1737 186.688 36.0171 185.904 37.2717C183.021 41.8851 179.501 46.0517 175.45 49.6823C174.345 50.6729 175.977 52.296 177.077 51.3096Z" fill="#E6E6E6"/>
<path d="M185.336 56.532C189.152 52.3059 192.399 47.5892 194.956 42.5013C195.619 41.1814 193.635 40.0148 192.969 41.3398C190.498 46.2555 187.396 50.8206 183.709 54.9047C182.719 56.0017 184.341 57.6342 185.336 56.532Z" fill="#E6E6E6"/>
<path d="M205.23 74.4782C205.147 74.4782 205.063 74.4752 204.98 74.47C199.476 74.1164 180.645 71.4525 169.398 52.0064C168.567 50.571 168.731 48.7446 169.806 47.4628C178.73 39.7235 185.448 31.2605 190.866 22.3712C191.648 21.4393 192.822 20.9299 194.009 20.9508C195.229 20.9797 196.353 21.5539 197.093 22.5263C202.432 29.5427 212.974 41.9634 223.581 46.3182C224.774 46.8081 225.637 47.8022 225.949 49.0473C226.26 50.2819 225.973 51.5546 225.162 52.539L208.291 73.0249C207.532 73.9464 206.402 74.4782 205.23 74.4782Z" fill="#E6E6E6"/>
<path d="M173.288 48.6966C173.001 49.0397 172.948 49.5289 173.157 49.9155C183.332 68.6507 201.522 70.1205 205.065 70.2246C205.406 70.2441 205.726 70.0905 205.943 69.8276L222.693 49.4892C222.93 49.2008 223.003 48.833 222.894 48.4779C222.784 48.1213 222.513 47.8553 222.151 47.7505C210.775 44.4258 198.839 29.0265 195.452 24.3856C195.254 24.1144 194.948 23.9518 194.613 23.9406C194.269 23.9372 193.955 24.0725 193.736 24.3331C187.93 33.9806 181.399 42.5325 173.288 48.6966Z" fill="white"/>
<path d="M181.722 53.0852L196.905 37.6043C197.943 36.5461 196.317 34.9175 195.278 35.977L180.095 51.4579C179.057 52.5161 180.683 54.1448 181.722 53.0852Z" fill="#E6E6E6"/>
<path d="M190.886 57.4467C195.076 53.6909 198.718 49.3421 201.699 44.5703C202.487 43.3107 200.496 42.1542 199.712 43.4088C196.83 48.0221 193.309 52.1888 189.259 55.8194C188.154 56.81 189.785 58.4331 190.886 57.4467Z" fill="#E6E6E6"/>
<path d="M199.145 62.6691C202.96 58.4429 206.208 53.7262 208.764 48.6384C209.428 47.3185 207.443 46.1519 206.777 47.4768C204.307 52.3926 201.205 56.9577 197.518 61.0418C196.527 62.1387 198.15 63.7713 199.145 62.6691Z" fill="#E6E6E6"/>
<path d="M356.351 217.162C356.268 217.162 356.185 217.159 356.101 217.154C350.597 216.8 331.766 214.136 320.519 194.69C319.688 193.255 319.852 191.428 320.927 190.147L341.987 165.055C342.769 164.123 343.943 163.614 345.131 163.635C346.35 163.663 347.916 164.025 348.214 165.21C350.64 174.839 361.089 187.343 374.702 189.002C375.982 189.158 376.758 190.486 377.07 191.731C377.381 192.966 377.094 194.238 376.283 195.223L359.412 215.709C358.653 216.63 357.524 217.162 356.351 217.162Z" fill="#E6E6E6"/>
<path d="M324.409 191.381C324.122 191.724 324.069 192.213 324.279 192.599C334.453 211.335 352.643 212.804 356.186 212.908C356.527 212.928 356.847 212.774 357.064 212.511L373.814 192.173C374.051 191.885 374.124 191.517 374.015 191.162C373.905 190.805 373.649 190.452 373.273 190.434C358.792 189.755 347.161 174.096 346.573 167.069C346.545 166.735 346.069 166.636 345.734 166.624C345.39 166.621 345.076 166.756 344.857 167.017L324.409 191.381Z" fill="white"/>
<path d="M332.843 195.769L348.026 180.288C349.064 179.23 347.438 177.601 346.399 178.661L331.216 194.142C330.178 195.2 331.804 196.829 332.843 195.769Z" fill="#E6E6E6"/>
<path d="M342.007 200.13C346.197 196.375 349.839 192.026 352.821 187.254C353.608 185.994 351.617 184.838 350.833 186.093C347.951 190.706 344.43 194.873 340.38 198.503C339.275 199.494 340.907 201.117 342.007 200.13Z" fill="#E6E6E6"/>
<path d="M350.266 205.353C354.081 201.127 357.329 196.41 359.886 191.322C360.549 190.002 358.564 188.836 357.898 190.161C355.428 195.076 352.326 199.641 348.639 203.726C347.649 204.822 349.271 206.455 350.266 205.353Z" fill="#E6E6E6"/>
<path d="M293.259 350.911L284.162 350.91L279.834 315.82L293.261 315.821L293.259 350.911Z" fill="#FFB6B6"/>
<path d="M262.091 350.705C261.808 351.182 261.658 352.721 261.658 353.276C261.658 354.981 263.041 356.364 264.746 356.364H292.919C294.083 356.364 295.026 355.421 295.026 354.257V353.085C295.026 353.085 296.419 349.559 293.55 345.214C293.55 345.214 289.984 348.616 284.655 343.287L283.083 340.441L271.708 348.76L265.403 349.536C264.024 349.706 262.801 349.51 262.091 350.705Z" fill="#2F2E41"/>
<path d="M377.267 332.958L369.518 337.724L347.445 310.104L358.882 303.07L377.267 332.958Z" fill="#FFB6B6"/>
<path d="M350.612 349.114C350.62 349.668 351.3 351.058 351.59 351.531C352.484 352.983 354.386 353.436 355.838 352.543L379.834 337.781C380.825 337.171 381.134 335.874 380.525 334.883L379.91 333.884C379.91 333.884 379.25 330.151 374.529 327.953C374.529 327.953 373.275 332.72 365.943 330.973L363.113 329.372L357.784 342.418L352.82 346.383C351.734 347.25 350.59 347.724 350.612 349.114Z" fill="#2F2E41"/>
<path d="M320.086 186.788C319.636 184.824 319.67 182.917 320.093 181.337L314.611 162.905L323.536 160.485L328.136 179.443C329.202 180.672 330.062 182.369 330.513 184.333C331.541 188.82 330.041 193.008 327.162 193.686C324.283 194.364 321.115 191.275 320.086 186.788Z" fill="#FFB6B6"/>
<path d="M269.307 63.9248C269.307 63.9248 283.69 57.6644 291.721 66.7111C299.03 74.9454 313.87 99.7237 312.346 102.134L326.954 171.163L316.126 174.499L287.401 95.1002L269.307 63.9248Z" fill="#3C65F5"/>
<path d="M253.467 166.223L260.877 252.679L278.786 332.96L297.93 331.108L288.667 243.416L294.337 165.484L253.467 166.223Z" fill="#2F2E41"/>
<path d="M255 184.982L301.157 258.462L353.822 321.645L369.995 311.237L321.626 237.507C314.223 205.03 306.025 174.966 291.001 165.621L255 184.982Z" fill="#2F2E41"/>
<path d="M257.693 185.342C255.528 185.342 253.431 184.579 251.722 183.13C249.429 181.185 248.234 178.349 248.444 175.349L252.47 136.718L250.932 94.534L250.942 94.4883L255.722 71.5646C255.769 70.8361 255.922 70.0649 256.169 69.3243L263.229 48.096C264.499 44.2776 268.055 41.7122 272.08 41.7122H278.323C281.449 41.7122 284.35 43.2648 286.084 45.8658L291.55 54.0644C291.913 54.609 292.219 55.1937 292.461 55.8024L304.527 86.256C304.91 87.2227 305.128 88.2397 305.174 89.2784L308.918 173.796C309.043 176.602 307.914 179.287 305.822 181.163C303.742 183.028 300.967 183.853 298.216 183.428C282.459 180.995 268.669 182.985 259.874 185.083C259.147 185.256 258.416 185.342 257.693 185.342Z" fill="#3C65F5"/>
<path d="M273.208 39.8229C283.122 39.8229 291.159 31.7861 291.159 21.8722C291.159 11.9583 283.122 3.92149 273.208 3.92149C263.295 3.92149 255.258 11.9583 255.258 21.8722C255.258 31.7861 263.295 39.8229 273.208 39.8229Z" fill="#FFB6B6"/>
<path d="M287.424 35.4423C285.805 36.0469 283.322 36.9869 281.703 37.5915C280.193 34.5811 282.043 33.0189 282.235 29.6565C282.299 28.5343 282.461 27.411 282.368 26.2909C282.275 25.1708 281.891 24.021 281.046 23.2798C279.753 22.1461 277.6 22.3304 276.349 23.5096C275.098 24.6887 274.741 26.6371 275.253 28.2786C270.331 26.151 267.151 20.5692 267.831 15.2504C266.361 14.6742 264.854 14.0902 263.276 14.0461C261.698 14.002 260.007 14.6043 259.166 15.9405C258.576 16.8774 258.458 18.0667 257.797 18.9542C256.721 20.3962 254.397 20.508 252.969 19.4141C251.541 18.3203 250.995 16.3324 251.3 14.5596C251.604 12.7867 249.388 9.16883 250.629 7.86618C251.475 6.97754 255.675 8.23668 256.619 7.45277C257.48 6.73759 258.345 6.02003 259.294 5.42671C260.499 4.67359 261.834 4.12819 263.222 3.82173C264.534 3.53184 265.883 3.45569 267.225 3.38048C268.588 3.30411 270.473 0.591002 271.836 0.514636C275.847 0.289809 279.432 2.71225 283.281 3.86556C287.13 5.01887 289.552 8.33073 291.682 11.7374C294.717 16.59 293.685 21.907 291.596 26.547C291.079 27.6939 292.812 28.8992 292.556 30.1305C292.317 31.2752 291.245 32.1042 290.994 33.2462C290.78 34.2228 289.512 33.0914 289.21 34.0444C288.949 34.8667 288.18 35.4474 287.358 35.7098C286.537 35.9723 285.657 35.967 284.794 35.9592" fill="#2F2E41"/>
<path d="M269.092 46L269.725 46.4607L271.32 47.6219C276.115 51.1132 275.669 58.4011 270.484 61.2818L264 50.9245" fill="#3F3D56"/>
<path d="M387.895 344.204C389.48 344.303 390.355 342.334 389.156 341.186L389.037 340.712C389.053 340.674 389.069 340.636 389.085 340.598C390.687 336.777 396.119 336.803 397.708 340.63C399.118 344.027 400.914 347.43 401.356 351.022C401.554 352.607 401.465 354.222 401.114 355.778C404.418 348.559 406.157 340.676 406.157 332.749C406.157 330.757 406.048 328.765 405.825 326.778C405.642 325.153 405.389 323.538 405.062 321.937C403.294 313.286 399.464 305.047 393.939 298.165C391.283 296.713 389.069 294.444 387.731 291.724C387.25 290.743 386.874 289.687 386.695 288.612C386.998 288.652 387.835 284.049 387.607 283.766C388.028 283.127 388.782 282.809 389.242 282.186C391.53 279.084 394.682 279.626 396.327 283.841C399.842 285.615 399.876 288.557 397.72 291.387C396.347 293.187 396.159 295.623 394.955 297.55C395.079 297.709 395.208 297.863 395.331 298.021C397.603 300.934 399.568 304.066 401.224 307.356C400.756 303.7 401.447 299.295 402.625 296.455C403.966 293.22 406.479 290.496 408.693 287.699C411.352 284.339 416.804 285.805 417.272 290.064C417.277 290.105 417.281 290.146 417.286 290.188C416.957 290.373 416.635 290.57 416.32 290.778C414.526 291.965 415.146 294.747 417.272 295.075L417.32 295.083C417.201 296.267 416.998 297.441 416.701 298.596C419.541 309.578 413.41 313.578 404.656 313.757C404.463 313.856 404.275 313.955 404.081 314.05C404.968 316.547 405.677 319.108 406.202 321.705C406.673 323.999 407 326.317 407.183 328.646C407.411 331.584 407.391 334.537 407.143 337.47L407.158 337.366C407.787 334.136 409.541 331.119 412.088 329.028C415.882 325.911 421.242 324.763 425.335 322.258C427.305 321.053 429.83 322.611 429.486 324.895L429.469 325.004C428.86 325.252 428.265 325.54 427.691 325.862C427.362 326.047 427.04 326.244 426.725 326.452C424.93 327.639 425.551 330.421 427.677 330.749L427.725 330.757C427.76 330.762 427.79 330.767 427.824 330.772C426.779 333.254 425.322 335.558 423.499 337.545C421.723 347.132 414.097 348.041 405.939 345.249H405.934C405.043 349.134 403.74 352.929 402.065 356.546H388.241C388.192 356.393 388.147 356.234 388.102 356.08C389.381 356.16 390.669 356.085 391.928 355.852C390.902 354.594 389.876 353.326 388.851 352.067C388.826 352.042 388.806 352.017 388.786 351.993C388.266 351.349 387.741 350.709 387.221 350.065L387.22 350.065C387.188 348.087 387.425 346.116 387.895 344.204Z" fill="#F2F2F2"/>
<path d="M148.898 356.587C148.898 357.093 149.305 357.5 149.811 357.5H428.497C429.004 357.5 429.41 357.093 429.41 356.587C429.41 356.081 429.004 355.674 428.497 355.674H149.811C149.305 355.674 148.898 356.081 148.898 356.587Z" fill="#CCCCCC"/>
<path d="M193.041 62.9985C194.66 64.0668 195.904 65.4121 196.66 66.7846L212.724 75.9873L208.121 83.5032L192.321 73.3587C190.762 73.2032 189.036 72.5891 187.417 71.5208C183.719 69.0804 181.98 65.1942 183.533 62.8408C185.086 60.4874 189.343 60.558 193.041 62.9985Z" fill="#FFB6B6"/>
<path d="M268.622 53.2975C278.866 47.015 289.161 61.4023 280.053 69.2412L280.022 69.2679L243.627 103.498L200.072 81.9896L204.379 70.3767L238.123 83.7439L263.437 57.4657C265.199 55.7014 266.932 54.3341 268.622 53.2975Z" fill="#3C65F5"/>
<path d="M52.8702 110.452C52.024 110.452 51.3359 111.14 51.3359 111.986V135.767C51.3359 136.613 52.024 137.301 52.8702 137.301C53.7163 137.301 54.4044 136.613 54.4044 135.767V111.986C54.4044 111.14 53.7163 110.452 52.8702 110.452Z" fill="#3F3D56"/>
<path d="M67.9065 133.367C73.1868 133.367 77.4673 129.176 77.4673 124.007C77.4673 118.838 73.1868 114.648 67.9065 114.648C62.6262 114.648 58.3457 118.838 58.3457 124.007C58.3457 129.176 62.6262 133.367 67.9065 133.367Z" fill="#3C65F5"/>
<path d="M144.551 120.805H93.0886C91.3232 120.805 89.8867 119.369 89.8867 117.604C89.8867 115.838 91.3231 114.402 93.0886 114.402H144.551C146.316 114.402 147.753 115.838 147.753 117.604C147.753 119.369 146.316 120.805 144.551 120.805Z" fill="#F2F2F2"/>
<path d="M184.712 131.643H93.0886C91.3232 131.643 89.8867 130.206 89.8867 128.441C89.8867 126.675 91.3231 125.239 93.0886 125.239H184.712C186.477 125.239 187.914 126.675 187.914 128.441C187.914 130.206 186.477 131.643 184.712 131.643Z" fill="#F2F2F2"/>
<path d="M10.0413 183.981C15.3216 183.981 19.6021 179.791 19.6021 174.622C19.6021 169.453 15.3216 165.263 10.0413 165.263C4.76098 165.263 0.480469 169.453 0.480469 174.622C0.480469 179.791 4.76098 183.981 10.0413 183.981Z" fill="#3C65F5"/>
<path d="M86.6854 171.42H35.2234C33.4579 171.42 32.0215 169.984 32.0215 168.218C32.0215 166.453 33.4579 165.016 35.2234 165.016H86.6854C88.4509 165.016 89.8873 166.453 89.8873 168.218C89.8873 169.984 88.4509 171.42 86.6854 171.42Z" fill="#F2F2F2"/>
<path d="M99.8381 214.674C105.118 214.674 109.399 210.483 109.399 205.314C109.399 200.145 105.118 195.955 99.8381 195.955C94.5579 195.955 90.2773 200.145 90.2773 205.314C90.2773 210.483 94.5579 214.674 99.8381 214.674Z" fill="#3C65F5"/>
<path d="M216.645 212.95H125.022C123.257 212.95 121.82 211.513 121.82 209.748C121.82 207.982 123.257 206.546 125.022 206.546H216.645C218.411 206.546 219.847 207.982 219.847 209.748C219.847 211.513 218.411 212.95 216.645 212.95Z" fill="#F2F2F2"/>
<path d="M194.008 39.6694C199.288 39.6694 203.569 35.4791 203.569 30.31C203.569 25.141 199.288 20.9507 194.008 20.9507C188.728 20.9507 184.447 25.141 184.447 30.31C184.447 35.4791 188.728 39.6694 194.008 39.6694Z" fill="#3C65F5"/>
<path d="M369.994 196.574C375.275 196.574 379.555 192.384 379.555 187.215C379.555 182.046 375.275 177.855 369.994 177.855C364.714 177.855 360.434 182.046 360.434 187.215C360.434 192.384 364.714 196.574 369.994 196.574Z" fill="#3C65F5"/>
</g>
<defs>
<clipPath id="clip0_228_1629">
<rect width="429.038" height="357" fill="white" transform="translate(0.480469 0.5)"/>
</clipPath>
</defs>
</svg>
