<svg width="349" height="316" viewBox="0 0 349 316" fill="none" xmlns="http://www.w3.org/2000/svg">
<g clip-path="url(#clip0_527_2059)">
<path d="M152.535 261.14H6.91491C5.08159 261.138 3.32396 260.409 2.02761 259.112C0.731261 257.816 0.00206327 256.058 0 254.225V56.5397C0.00206327 54.7064 0.731261 52.9487 2.02761 51.6524C3.32396 50.356 5.0816 49.6268 6.91491 49.6248H152.535C154.368 49.6268 156.126 50.356 157.422 51.6524C158.719 52.9487 159.448 54.7064 159.45 56.5397V254.225C159.448 256.058 158.719 257.816 157.422 259.112C156.126 260.409 154.368 261.138 152.535 261.14Z" fill="white"/>
<path d="M73.1603 101.073C73.1603 106.782 71.3541 112.345 68.0003 116.966C64.6465 121.586 59.9169 125.027 54.4885 126.796C54.3262 126.848 54.164 126.9 53.9992 126.949C53.296 127.165 52.583 127.35 51.8576 127.507C50.545 127.792 49.2126 127.977 47.872 128.06C47.2894 128.099 46.7034 128.119 46.114 128.119C43.0691 128.122 40.0456 127.61 37.1715 126.605C37.0879 126.575 37.0044 126.546 36.9232 126.516C32.2666 124.834 28.1608 121.907 25.0534 118.052C21.946 114.198 19.9561 109.564 19.3006 104.657C18.6451 99.7492 19.3492 94.7559 21.336 90.221C23.3228 85.686 26.5162 81.7834 30.5682 78.9384C34.6202 76.0933 39.3754 74.415 44.3155 74.0863C49.2557 73.7576 54.1913 74.7911 58.5845 77.0742C62.9778 79.3573 66.6601 82.8024 69.2302 87.0341C71.8004 91.2658 73.1598 96.1218 73.1603 101.073Z" fill="white"/>
<path d="M45.4657 118.992C52.7332 118.992 58.6247 113.101 58.6247 105.833C58.6247 98.5656 52.7332 92.6741 45.4657 92.6741C38.1981 92.6741 32.3066 98.5656 32.3066 105.833C32.3066 113.101 38.1981 118.992 45.4657 118.992Z" fill="#3C65F5"/>
<path d="M46.2336 112.923L46.2472 112.431C45.3324 112.406 44.5259 112.349 43.9198 111.906C43.748 111.773 43.6068 111.605 43.5058 111.413C43.4047 111.221 43.3462 111.009 43.3343 110.792C43.3237 110.66 43.3437 110.527 43.3929 110.403C43.442 110.28 43.519 110.17 43.6178 110.081C43.8467 109.942 44.1089 109.867 44.3766 109.865C44.6444 109.863 44.9078 109.933 45.1392 110.067L45.5461 110.254L44.7659 104.552L44.2787 104.619L44.9424 109.469C44.6707 109.368 44.3781 109.337 44.0913 109.378C43.8045 109.42 43.5326 109.532 43.3004 109.705C43.1441 109.842 43.0215 110.012 42.9422 110.204C42.8629 110.395 42.8289 110.603 42.8429 110.81C42.8573 111.101 42.9352 111.386 43.0711 111.643C43.207 111.901 43.3977 112.127 43.6298 112.303C44.4085 112.872 45.4204 112.9 46.2336 112.923Z" fill="#2F2E41"/>
<path d="M41.8711 105.037H39.2227V105.529H41.8711V105.037Z" fill="#2F2E41"/>
<path d="M50.2305 105.037H47.582V105.529H50.2305V105.037Z" fill="#2F2E41"/>
<path d="M49.2052 124.229C49.2401 124.068 49.2583 123.903 49.2594 123.738C49.2584 123.118 49.012 122.525 48.5742 122.087C48.1363 121.649 47.5428 121.403 46.9236 121.402H43.4813C42.862 121.402 42.2682 121.649 41.8303 122.087C41.3923 122.524 41.1461 123.118 41.1455 123.738C41.1454 123.904 41.1635 124.07 41.1995 124.232C39.9001 124.641 38.6718 125.249 37.5582 126.034C37.3418 126.184 37.1279 126.346 36.9238 126.516C37.005 126.545 37.0886 126.575 37.1721 126.604C40.0462 127.61 43.0697 128.122 46.1146 128.119C46.7047 128.119 47.2907 128.099 47.8726 128.06C49.2132 127.977 50.5456 127.792 51.8582 127.507C52.5836 127.349 53.2966 127.165 53.9998 126.949C52.6086 125.718 50.9755 124.792 49.2052 124.229Z" fill="#2F2E41"/>
<path d="M48.7631 127.748C48.444 127.771 48.1369 127.879 47.873 128.06C49.2137 127.977 50.546 127.792 51.8587 127.507L48.7631 127.748Z" fill="#2F2E41"/>
<path d="M57.4001 102.707L34.5401 94.3442C34.2952 94.2546 34.0958 94.0713 33.986 93.8347C33.8762 93.5982 33.8648 93.3276 33.9544 93.0827L34.0317 92.717C35.817 87.8369 41.7345 84.7655 46.6147 86.5508L53.6492 89.1243C58.5294 90.9096 60.6504 96.6884 58.8651 101.569L58.6616 102.121C58.572 102.366 58.3887 102.566 58.1522 102.675C57.9156 102.785 57.6451 102.797 57.4001 102.707Z" fill="#2F2E41"/>
<path d="M58.6328 103.171C26.7705 104.347 23.9864 100.343 33.6946 94.048L35.7542 90.2583L59.3582 98.864L58.6328 103.171Z" fill="#2F2E41"/>
<path d="M52.384 88.5241C52.5599 87.9389 51.8064 87.1951 50.701 86.8628C49.5956 86.5306 48.5569 86.7356 48.381 87.3208C48.2051 87.906 48.9586 88.6498 50.064 88.9821C51.1694 89.3143 52.208 89.1093 52.384 88.5241Z" fill="#2F2E41"/>
<path d="M46.114 128.857C42.986 128.86 39.88 128.334 36.9276 127.301L36.671 127.209C30.4867 124.974 25.2956 120.618 22.0208 114.916C18.7459 109.214 17.5997 102.535 18.7859 96.0672C19.9722 89.5994 23.4139 83.7619 28.4992 79.593C33.5844 75.424 39.9835 73.1938 46.5583 73.299C53.1332 73.4041 59.4576 75.8378 64.407 80.1673C69.3563 84.4967 72.6096 90.4413 73.5884 96.9437C74.5672 103.446 73.2079 110.085 69.7524 115.68C66.2969 121.274 60.9692 125.462 54.7166 127.498C54.5418 127.553 54.3774 127.606 54.2102 127.656C53.5119 127.871 52.771 128.064 52.0139 128.228C50.6647 128.52 49.2952 128.71 47.9173 128.796C47.3253 128.836 46.7171 128.857 46.114 128.857ZM46.114 74.7643C39.9232 74.7652 33.9309 76.9489 29.1911 80.9315C24.4513 84.914 21.2675 90.4403 20.1997 96.5384C19.1319 102.636 20.2486 108.916 23.3532 114.272C26.4578 119.628 31.3515 123.718 37.1737 125.822L37.4173 125.909C40.2124 126.887 43.1528 127.385 46.114 127.382C46.6841 127.382 47.2588 127.362 47.8222 127.324C49.1271 127.243 50.4239 127.063 51.7017 126.786C52.4177 126.631 53.1178 126.448 53.7823 126.244C53.9468 126.195 54.103 126.145 54.2593 126.095C60.2145 124.156 65.2825 120.155 68.5522 114.813C71.822 109.472 73.0791 103.139 72.0976 96.9529C71.116 90.7672 67.9602 85.1345 63.1973 81.0673C58.4345 77.0001 52.3771 74.7652 46.114 74.7643Z" fill="#CCCCCC"/>
<path d="M152.535 261.14H6.91491C5.08159 261.138 3.32396 260.409 2.02761 259.112C0.731261 257.816 0.00206327 256.058 0 254.225V56.5397C0.00206327 54.7064 0.731261 52.9487 2.02761 51.6524C3.32396 50.356 5.0816 49.6268 6.91491 49.6248H152.535C154.368 49.6268 156.126 50.356 157.422 51.6524C158.719 52.9487 159.448 54.7064 159.45 56.5397V254.225C159.448 256.058 158.719 257.816 157.422 259.112C156.126 260.409 154.368 261.138 152.535 261.14ZM6.91491 50.4383C5.29728 50.4401 3.74644 51.0835 2.60261 52.2274C1.45877 53.3712 0.815354 54.922 0.81352 56.5397V254.225C0.815353 255.843 1.45876 257.393 2.60259 258.537C3.74643 259.681 5.29728 260.324 6.91491 260.326H152.535C154.153 260.324 155.703 259.681 156.847 258.537C157.991 257.393 158.635 255.843 158.636 254.225V56.5397C158.635 54.922 157.991 53.3712 156.847 52.2274C155.703 51.0835 154.153 50.4401 152.535 50.4383H6.91491Z" fill="#CCCCCC"/>
<path d="M124.344 100.968H83.1386C82.2747 100.967 81.4466 100.623 80.8362 100.011C80.2257 99.4002 79.8828 98.5716 79.8828 97.7078C79.8828 96.8439 80.2257 96.0154 80.8362 95.4041C81.4466 94.7929 82.2747 94.449 83.1386 94.4479H124.344C124.772 94.4474 125.197 94.5313 125.593 94.6949C125.989 94.8585 126.349 95.0985 126.652 95.4013C126.955 95.704 127.195 96.0636 127.359 96.4593C127.523 96.8551 127.608 97.2793 127.608 97.7078C127.608 98.1362 127.523 98.5604 127.359 98.9562C127.195 99.3519 126.955 99.7115 126.652 100.014C126.349 100.317 125.989 100.557 125.593 100.721C125.197 100.884 124.772 100.968 124.344 100.968Z" fill="#E6E6E6"/>
<path d="M137.791 111.969H83.1386C82.2747 111.968 81.4466 111.624 80.8362 111.013C80.2257 110.402 79.8828 109.574 79.8828 108.71C79.8828 107.846 80.2257 107.017 80.8362 106.406C81.4466 105.795 82.2747 105.451 83.1386 105.45H137.791C138.655 105.451 139.483 105.795 140.093 106.406C140.704 107.017 141.047 107.846 141.047 108.71C141.047 109.574 140.704 110.402 140.093 111.013C139.483 111.624 138.655 111.968 137.791 111.969Z" fill="#E6E6E6"/>
<path d="M124.285 154.166H21.6584C21.23 154.167 20.8056 154.083 20.4097 153.919C20.0137 153.756 19.6539 153.516 19.3507 153.213C19.0476 152.91 18.8071 152.551 18.643 152.155C18.479 151.759 18.3945 151.335 18.3945 150.906C18.3945 150.478 18.479 150.054 18.643 149.658C18.8071 149.262 19.0476 148.903 19.3507 148.6C19.6539 148.297 20.0137 148.057 20.4097 147.894C20.8056 147.73 21.23 147.646 21.6584 147.647H124.285C125.148 147.648 125.977 147.992 126.587 148.603C127.197 149.214 127.54 150.043 127.54 150.906C127.54 151.77 127.197 152.599 126.587 153.21C125.977 153.821 125.148 154.165 124.285 154.166Z" fill="#E6E6E6"/>
<path d="M137.731 165.168H21.6584C21.23 165.169 20.8056 165.085 20.4097 164.921C20.0137 164.758 19.6539 164.518 19.3507 164.215C19.0476 163.912 18.8071 163.553 18.643 163.157C18.479 162.761 18.3945 162.337 18.3945 161.908C18.3945 161.48 18.479 161.056 18.643 160.66C18.8071 160.264 19.0476 159.905 19.3507 159.602C19.6539 159.299 20.0137 159.059 20.4097 158.896C20.8056 158.732 21.23 158.648 21.6584 158.649H137.731C138.16 158.648 138.584 158.732 138.98 158.896C139.376 159.059 139.736 159.299 140.039 159.602C140.342 159.905 140.583 160.264 140.747 160.66C140.911 161.056 140.995 161.48 140.995 161.908C140.995 162.337 140.911 162.761 140.747 163.157C140.583 163.553 140.342 163.912 140.039 164.215C139.736 164.518 139.376 164.758 138.98 164.921C138.584 165.085 138.16 165.169 137.731 165.168Z" fill="#E6E6E6"/>
<path d="M124.284 190.455H21.6583C20.7937 190.455 19.9645 190.111 19.3532 189.5C18.7419 188.889 18.3984 188.059 18.3984 187.195C18.3984 186.33 18.7419 185.501 19.3532 184.89C19.9645 184.279 20.7937 183.935 21.6583 183.935H124.284C125.149 183.935 125.978 184.279 126.589 184.89C127.201 185.501 127.544 186.33 127.544 187.195C127.544 188.059 127.201 188.889 126.589 189.5C125.978 190.111 125.149 190.455 124.284 190.455Z" fill="#E6E6E6"/>
<path d="M137.731 201.457H21.6583C20.7937 201.457 19.9645 201.113 19.3532 200.502C18.7419 199.891 18.3984 199.061 18.3984 198.197C18.3984 197.332 18.7419 196.503 19.3532 195.892C19.9645 195.28 20.7937 194.937 21.6583 194.937H137.731C138.596 194.937 139.425 195.28 140.036 195.892C140.648 196.503 140.991 197.332 140.991 198.197C140.991 199.061 140.648 199.891 140.036 200.502C139.425 201.113 138.596 201.457 137.731 201.457Z" fill="#E6E6E6"/>
<path d="M124.284 226.743H21.6583C20.7937 226.743 19.9645 226.4 19.3532 225.788C18.7419 225.177 18.3984 224.348 18.3984 223.483C18.3984 222.619 18.7419 221.79 19.3532 221.178C19.9645 220.567 20.7937 220.224 21.6583 220.224H124.284C125.149 220.224 125.978 220.567 126.589 221.178C127.201 221.79 127.544 222.619 127.544 223.483C127.544 224.348 127.201 225.177 126.589 225.788C125.978 226.4 125.149 226.743 124.284 226.743Z" fill="#E6E6E6"/>
<path d="M137.731 237.745H21.6583C20.7937 237.745 19.9645 237.402 19.3532 236.79C18.7419 236.179 18.3984 235.35 18.3984 234.485C18.3984 233.621 18.7419 232.792 19.3532 232.18C19.9645 231.569 20.7937 231.225 21.6583 231.225H137.731C138.596 231.225 139.425 231.569 140.036 232.18C140.648 232.792 140.991 233.621 140.991 234.485C140.991 235.35 140.648 236.179 140.036 236.79C139.425 237.402 138.596 237.745 137.731 237.745Z" fill="#E6E6E6"/>
<path d="M342.086 211.515L196.466 211.515C194.633 211.513 192.875 210.784 191.579 209.488C190.282 208.191 189.553 206.434 189.551 204.6L189.551 6.91504C189.553 5.08172 190.282 3.32409 191.578 2.02773C192.875 0.731381 194.632 0.00217904 196.466 0.000114447L342.086 0C343.919 0.00206195 345.677 0.731253 346.973 2.0276C348.269 3.32395 348.999 5.08159 349.001 6.91491L349.001 204.6C348.999 206.433 348.27 208.191 346.973 209.487C345.677 210.784 343.919 211.513 342.086 211.515Z" fill="white"/>
<path d="M342.086 211.515L196.466 211.515C194.633 211.513 192.875 210.784 191.579 209.488C190.282 208.191 189.553 206.434 189.551 204.6L189.551 6.91504C189.553 5.08172 190.282 3.32409 191.578 2.02773C192.875 0.731381 194.632 0.00217904 196.466 0.000114447L342.086 0C343.919 0.00206195 345.677 0.731253 346.973 2.0276C348.269 3.32395 348.999 5.08159 349.001 6.91491L349.001 204.6C348.999 206.433 348.27 208.191 346.973 209.487C345.677 210.784 343.919 211.513 342.086 211.515ZM196.466 0.813634C194.848 0.815469 193.297 1.45889 192.153 2.60272C191.01 3.74656 190.366 5.29741 190.364 6.91504L190.364 204.6C190.366 206.218 191.01 207.769 192.154 208.913C193.297 210.056 194.848 210.7 196.466 210.702L342.086 210.702C343.703 210.7 345.254 210.056 346.398 208.913C347.542 207.769 348.185 206.218 348.187 204.6L348.187 6.91492C348.185 5.29729 347.542 3.74644 346.398 2.6026C345.254 1.45876 343.703 0.815351 342.086 0.81352L196.466 0.813634Z" fill="#CCCCCC"/>
<path d="M262.778 51.1787C262.778 56.5279 261.192 61.757 258.22 66.2048C255.248 70.6525 251.024 74.1191 246.082 76.1662C241.14 78.2132 235.702 78.7488 230.455 77.7053C225.209 76.6617 220.39 74.0858 216.607 70.3033C212.825 66.5208 210.249 61.7016 209.205 56.4552C208.162 51.2087 208.697 45.7706 210.744 40.8286C212.791 35.8865 216.258 31.6625 220.706 28.6906C225.153 25.7187 230.383 24.1325 235.732 24.1324C242.904 24.1347 249.782 26.9849 254.854 32.0566C259.926 37.1283 262.776 44.0063 262.778 51.1787Z" fill="white"/>
<path d="M248.232 55.8065C247.937 73.1041 222.207 73.1014 221.914 55.806C222.209 38.509 247.939 38.5117 248.232 55.8065Z" fill="#3C65F5"/>
<path d="M234.551 61.1755L234.537 60.6838C237.926 61.1363 238.656 56.9358 235.238 58.5062L236.018 52.8043L236.506 52.871L235.842 57.7213C239.441 57.1856 238.11 61.667 234.551 61.1755Z" fill="#2F2E41"/>
<path d="M241.564 53.2892H238.916V53.781H241.564V53.2892Z" fill="#2F2E41"/>
<path d="M233.205 53.2892H230.557V53.781H233.205V53.2892Z" fill="#2F2E41"/>
<path d="M239.339 74.2049C239.855 70.7208 235.776 71.4093 233.617 71.3749C233.269 71.3759 232.925 71.4546 232.612 71.6053C232.298 71.7559 232.022 71.9746 231.803 72.2455C231.584 72.5163 231.429 72.8326 231.348 73.1711C231.267 73.5097 231.263 73.862 231.335 74.2024C229.664 74.7189 228.117 75.5725 226.789 76.7104C232.386 78.6619 238.467 78.7293 244.106 76.9021C242.731 75.6677 241.105 74.7473 239.339 74.2049Z" fill="#2F2E41"/>
<path d="M228.887 49.5827C231.325 48.1732 234.283 49.2545 236.802 49.8457C241.581 51.3149 248.283 49.4751 248.864 43.7818C249.469 38.4869 242.226 35.5358 239.911 40.8058L240.585 40.7177C233.077 29.5594 220.016 29.9826 220.102 45.3233C220.074 45.7972 220.812 45.7956 220.84 45.323C220.563 36.283 226.546 30.1034 235.003 35.913C236.892 37.3916 238.558 39.1353 239.948 41.09C240.829 42.0771 241.02 37.8262 245.236 38.9396C249.875 40.7369 248.361 47.3801 244.215 48.8385C239.091 51.4561 233.542 46.3808 228.514 48.9454C228.433 48.9965 228.375 49.0771 228.353 49.1701C228.33 49.2631 228.344 49.3612 228.393 49.4439C228.441 49.5266 228.519 49.5872 228.611 49.6131C228.704 49.639 228.802 49.6281 228.887 49.5827Z" fill="#2F2E41"/>
<path d="M235.733 78.9626C228.749 78.9567 222.023 76.3182 216.898 71.5734C211.772 66.8286 208.624 60.3261 208.08 53.3629C207.537 46.3996 209.638 39.4873 213.965 34.0045C218.292 28.5217 224.526 24.8714 231.425 23.7816C238.324 22.6918 245.38 24.2426 251.186 28.1247C256.993 32.0068 261.122 37.9349 262.751 44.7267C264.381 51.5184 263.39 58.6748 259.976 64.7684C256.563 70.8621 250.978 75.4451 244.336 77.6036C241.558 78.5071 238.654 78.9658 235.733 78.9626ZM235.733 24.8701C230.529 24.8693 225.441 26.412 221.113 29.3029C216.786 32.1939 213.413 36.3033 211.421 41.1114C209.429 45.9195 208.907 51.2104 209.923 56.3148C210.938 61.4192 213.444 66.108 217.124 69.7881C220.804 73.4682 225.493 75.9742 230.597 76.9894C235.702 78.0045 240.992 77.4831 245.801 75.4911C250.609 73.4992 254.718 70.1261 257.609 65.7984C260.5 61.4708 262.043 56.3831 262.042 51.1787C262.034 44.2036 259.26 37.5165 254.327 32.5844C249.395 27.6523 242.708 24.8779 235.733 24.8701Z" fill="#CCCCCC"/>
<path d="M313.895 51.3429L272.69 51.343C271.825 51.343 270.996 50.9995 270.384 50.3882C269.773 49.7769 269.43 48.9477 269.43 48.0832C269.43 47.2186 269.773 46.3894 270.384 45.7781C270.996 45.1668 271.825 44.8233 272.69 44.8233L313.895 44.8233C314.759 44.8233 315.589 45.1667 316.2 45.7781C316.811 46.3894 317.155 47.2186 317.155 48.0831C317.155 48.9477 316.811 49.7768 316.2 50.3882C315.589 50.9995 314.759 51.3429 313.895 51.3429Z" fill="#E6E6E6"/>
<path d="M327.342 62.3447L272.69 62.3448C272.261 62.3453 271.837 62.2614 271.441 62.0978C271.045 61.9342 270.685 61.6942 270.382 61.3914C270.079 61.0887 269.838 60.7291 269.674 60.3334C269.51 59.9376 269.426 59.5134 269.426 59.0849C269.426 58.6565 269.51 58.2323 269.674 57.8365C269.838 57.4408 270.079 57.0812 270.382 56.7785C270.685 56.4757 271.045 56.2357 271.441 56.0721C271.837 55.9085 272.261 55.8246 272.69 55.8251L327.342 55.8251C328.206 55.8251 329.036 56.1685 329.647 56.7799C330.258 57.3912 330.602 58.2203 330.602 59.0849C330.602 59.9495 330.258 60.7786 329.647 61.3899C329.036 62.0013 328.206 62.3447 327.342 62.3447Z" fill="#E6E6E6"/>
<path d="M313.835 104.542L211.209 104.542C210.345 104.541 209.517 104.197 208.906 103.585C208.296 102.974 207.953 102.146 207.953 101.282C207.953 100.418 208.296 99.5894 208.906 98.9782C209.517 98.367 210.345 98.0231 211.209 98.022L313.835 98.0219C314.7 98.0219 315.529 98.3654 316.14 98.9767C316.751 99.588 317.095 100.417 317.095 101.282C317.095 102.146 316.751 102.975 316.14 103.587C315.529 104.198 314.7 104.542 313.835 104.542Z" fill="#E6E6E6"/>
<path d="M327.282 115.543L211.209 115.544C210.781 115.544 210.356 115.46 209.96 115.297C209.564 115.133 209.205 114.893 208.902 114.59C208.598 114.287 208.358 113.928 208.194 113.532C208.03 113.136 207.945 112.712 207.945 112.284C207.945 111.855 208.03 111.431 208.194 111.035C208.358 110.64 208.598 110.28 208.902 109.977C209.205 109.675 209.564 109.435 209.96 109.271C210.356 109.107 210.781 109.023 211.209 109.024L327.282 109.024C328.147 109.024 328.976 109.367 329.587 109.979C330.198 110.59 330.542 111.419 330.542 112.284C330.542 113.148 330.198 113.977 329.587 114.589C328.976 115.2 328.147 115.543 327.282 115.543Z" fill="#E6E6E6"/>
<path d="M313.835 140.83L211.209 140.83C210.345 140.829 209.517 140.485 208.906 139.874C208.296 139.263 207.953 138.434 207.953 137.57C207.953 136.706 208.296 135.878 208.906 135.267C209.517 134.655 210.345 134.312 211.209 134.31L313.835 134.31C314.7 134.31 315.529 134.654 316.14 135.265C316.751 135.876 317.095 136.706 317.095 137.57C317.095 138.435 316.751 139.264 316.14 139.875C315.529 140.487 314.7 140.83 313.835 140.83Z" fill="#E6E6E6"/>
<path d="M327.282 151.832L211.209 151.832C210.781 151.833 210.356 151.749 209.96 151.585C209.564 151.421 209.205 151.181 208.902 150.879C208.598 150.576 208.358 150.216 208.194 149.821C208.03 149.425 207.945 149.001 207.945 148.572C207.945 148.144 208.03 147.72 208.194 147.324C208.358 146.928 208.598 146.569 208.902 146.266C209.205 145.963 209.564 145.723 209.96 145.559C210.356 145.396 210.781 145.312 211.209 145.312L327.282 145.312C328.147 145.312 328.976 145.656 329.587 146.267C330.198 146.878 330.542 147.708 330.542 148.572C330.542 149.437 330.198 150.266 329.587 150.877C328.976 151.489 328.147 151.832 327.282 151.832Z" fill="#E6E6E6"/>
<path d="M313.835 177.118L211.209 177.119C210.344 177.119 209.515 176.775 208.904 176.164C208.293 175.552 207.949 174.723 207.949 173.859C207.949 172.994 208.293 172.165 208.904 171.554C209.515 170.942 210.344 170.599 211.209 170.599L313.835 170.599C314.7 170.599 315.529 170.942 316.14 171.554C316.752 172.165 317.095 172.994 317.095 173.859C317.095 174.723 316.752 175.552 316.14 176.164C315.529 176.775 314.7 177.118 313.835 177.118Z" fill="#E6E6E6"/>
<path d="M327.282 188.12L211.209 188.121C210.344 188.121 209.515 187.777 208.904 187.166C208.293 186.554 207.949 185.725 207.949 184.861C207.949 183.996 208.293 183.167 208.904 182.556C209.515 181.944 210.344 181.601 211.209 181.601L327.282 181.601C328.147 181.601 328.976 181.944 329.587 182.556C330.198 183.167 330.542 183.996 330.542 184.861C330.542 185.725 330.198 186.554 329.587 187.166C328.976 187.777 328.147 188.12 327.282 188.12Z" fill="#E6E6E6"/>
<path d="M254.224 296.528H108.604C106.771 296.526 105.013 295.797 103.717 294.5C102.421 293.204 101.692 291.446 101.689 289.613V91.9279C101.692 90.0945 102.421 88.3369 103.717 87.0405C105.013 85.7442 106.771 85.015 108.604 85.0129H254.224C256.058 85.015 257.815 85.7442 259.112 87.0405C260.408 88.3369 261.137 90.0945 261.139 91.9279V289.613C261.137 291.446 260.408 293.204 259.112 294.5C257.815 295.797 256.058 296.526 254.224 296.528Z" fill="white"/>
<path d="M120.75 135.905C120.745 139.465 121.446 142.99 122.81 146.278C124.175 149.566 126.177 152.551 128.702 155.061C128.913 155.27 129.129 155.479 129.348 155.683C130.666 156.915 132.105 158.011 133.641 158.956C133.936 159.138 134.231 159.312 134.534 159.482C136.088 160.358 137.725 161.077 139.422 161.628C139.714 161.724 140.012 161.815 140.309 161.899C145.702 163.445 151.442 163.284 156.739 161.437C156.842 161.4 156.945 161.363 157.046 161.326C161.696 159.634 165.793 156.699 168.891 152.841C171.989 148.982 173.969 144.347 174.615 139.441C175.262 134.535 174.55 129.546 172.558 125.017C170.565 120.487 167.369 116.591 163.316 113.752C159.262 110.913 154.508 109.241 149.571 108.917C144.633 108.593 139.701 109.629 135.311 111.914C130.922 114.198 127.243 117.643 124.676 121.873C122.108 126.103 120.75 130.957 120.75 135.905Z" fill="white"/>
<path d="M142.084 149.161C142.097 151.257 141.325 153.281 139.919 154.835C138.529 156.361 136.458 157.374 134.369 156.955C132.445 156.569 130.882 154.888 131.077 152.854C131.109 152.413 131.237 151.985 131.452 151.599C131.667 151.213 131.964 150.878 132.321 150.619C132.678 150.359 133.088 150.18 133.521 150.095C133.955 150.01 134.402 150.02 134.831 150.126C136.658 150.6 137.386 153.234 135.864 154.47C135.498 154.767 134.973 154.248 135.342 153.949C135.569 153.741 135.741 153.479 135.841 153.187C135.941 152.896 135.967 152.584 135.915 152.28C135.863 151.976 135.736 151.69 135.545 151.448C135.354 151.206 135.106 151.016 134.823 150.895C134.488 150.788 134.134 150.758 133.786 150.809C133.439 150.859 133.107 150.987 132.817 151.184C132.526 151.382 132.284 151.642 132.109 151.947C131.934 152.251 131.831 152.592 131.807 152.942C131.687 154.657 133 155.948 134.611 156.252C136.354 156.581 138.082 155.689 139.263 154.458C140.616 153.028 141.363 151.13 141.346 149.161C141.349 149.066 141.39 148.975 141.459 148.909C141.527 148.842 141.619 148.805 141.715 148.805C141.811 148.805 141.903 148.842 141.972 148.909C142.04 148.975 142.081 149.066 142.084 149.161Z" fill="#2F2E41"/>
<path d="M149.288 153.851C156.555 153.851 162.447 147.959 162.447 140.691C162.447 133.424 156.555 127.532 149.288 127.532C142.02 127.532 136.129 133.424 136.129 140.691C136.129 147.959 142.02 153.851 149.288 153.851Z" fill="#3C65F5"/>
<path d="M148.613 146.306L148.6 145.815C149.514 145.789 150.321 145.732 150.927 145.289C151.099 145.156 151.24 144.988 151.341 144.796C151.442 144.604 151.501 144.392 151.513 144.176C151.523 144.043 151.503 143.91 151.454 143.787C151.405 143.663 151.328 143.553 151.229 143.464C151 143.325 150.738 143.251 150.47 143.248C150.202 143.246 149.939 143.316 149.708 143.45L149.301 143.637L150.081 137.935L150.568 138.002L149.905 142.852C150.176 142.751 150.469 142.72 150.756 142.761C151.042 142.803 151.314 142.915 151.547 143.088C151.703 143.225 151.825 143.395 151.905 143.587C151.984 143.779 152.018 143.986 152.004 144.193C151.99 144.484 151.912 144.769 151.776 145.027C151.64 145.285 151.449 145.51 151.217 145.686C150.438 146.255 149.426 146.284 148.613 146.306Z" fill="#2F2E41"/>
<path d="M155.627 138.42H152.979V138.912H155.627V138.42Z" fill="#2F2E41"/>
<path d="M147.268 138.42H144.619V138.912H147.268V138.42Z" fill="#2F2E41"/>
<path d="M140.309 161.899C145.701 163.445 151.441 163.284 156.738 161.437C156.841 161.4 156.945 161.363 157.045 161.326C155.797 160.363 154.385 159.633 152.878 159.172C152.984 158.794 152.983 158.394 152.873 158.016C152.724 157.538 152.424 157.121 152.019 156.827C151.613 156.533 151.124 156.377 150.623 156.384H147.417C146.917 156.377 146.428 156.532 146.024 156.826C145.619 157.12 145.32 157.537 145.172 158.014C145.062 158.392 145.061 158.793 145.167 159.172C143.839 159.579 142.584 160.194 141.45 160.994C141.221 161.154 141 161.321 140.786 161.496C140.623 161.626 140.464 161.761 140.309 161.899Z" fill="#2F2E41"/>
<path d="M159.596 139.296C159.596 141.513 160.687 143.352 162.106 143.672C162.251 143.705 162.398 143.721 162.546 143.721C164.171 143.721 165.497 141.737 165.497 139.296C165.533 138.037 165.132 136.805 164.361 135.809C164.121 135.519 163.826 135.279 163.493 135.103C163.2 134.951 162.876 134.871 162.546 134.87C162.093 134.875 161.654 135.023 161.29 135.293C160.289 136.001 159.596 137.528 159.596 139.296Z" fill="#3F3D56"/>
<path d="M133.287 139.296C133.287 141.204 134.094 142.831 135.225 143.453C135.534 143.627 135.883 143.719 136.238 143.721C136.317 143.721 136.396 143.716 136.474 143.707C137.988 143.527 139.188 141.619 139.188 139.296C139.188 137.434 138.419 135.839 137.332 135.187C137.003 134.983 136.625 134.873 136.238 134.87C135.908 134.871 135.584 134.951 135.291 135.103C134.957 135.28 134.661 135.52 134.421 135.812C133.652 136.807 133.251 138.038 133.287 139.296Z" fill="#3F3D56"/>
<path d="M135.409 143.029C135.467 143.029 135.525 143.015 135.577 142.988C135.629 142.961 135.674 142.923 135.708 142.875C135.742 142.828 135.764 142.773 135.773 142.715C135.782 142.657 135.777 142.598 135.758 142.542C135.053 140.446 134.841 138.216 135.138 136.024C135.436 133.833 136.234 131.739 137.472 129.907C138.71 128.074 140.354 126.552 142.276 125.458C144.197 124.364 146.346 123.728 148.553 123.599C150.761 123.47 152.969 123.852 155.005 124.715C157.041 125.578 158.851 126.899 160.293 128.575C161.736 130.252 162.772 132.238 163.322 134.38C163.873 136.522 163.921 138.762 163.465 140.926C163.445 141.021 163.464 141.121 163.517 141.203C163.571 141.284 163.654 141.342 163.75 141.362C163.846 141.382 163.945 141.363 164.027 141.31C164.109 141.257 164.166 141.173 164.187 141.078C164.667 138.803 164.616 136.448 164.038 134.196C163.459 131.943 162.37 129.855 160.853 128.092C159.336 126.33 157.434 124.941 155.293 124.034C153.152 123.126 150.831 122.724 148.51 122.86C146.189 122.995 143.93 123.664 141.909 124.815C139.889 125.965 138.161 127.566 136.859 129.493C135.558 131.42 134.719 133.621 134.407 135.925C134.094 138.229 134.318 140.574 135.059 142.778C135.084 142.851 135.131 142.915 135.193 142.96C135.256 143.005 135.331 143.029 135.409 143.029Z" fill="#3F3D56"/>
<path d="M155.897 132.166C156.115 132.522 156.206 132.942 156.154 133.357C156.103 133.772 155.911 134.157 155.612 134.449C154.898 135.247 153.759 135.297 152.769 135.149C151.66 134.983 150.482 134.463 149.358 134.813C148.401 135.112 147.717 135.981 146.722 136.199C145.84 136.392 144.785 136.136 144.475 135.196C144.327 134.744 145.039 134.55 145.187 134.999C145.387 135.608 146.251 135.596 146.746 135.427C147.539 135.157 148.151 134.5 148.931 134.186C149.86 133.898 150.855 133.901 151.783 134.194C152.666 134.393 153.681 134.687 154.56 134.316C155.21 134.042 155.728 133.177 155.26 132.538C154.979 132.155 155.619 131.786 155.897 132.166Z" fill="#2F2E41"/>
<path d="M147.797 163.689C145.195 163.691 142.606 163.327 140.105 162.607C139.812 162.525 139.503 162.431 139.193 162.329C137.451 161.762 135.769 161.024 134.173 160.125C133.873 159.957 133.573 159.78 133.255 159.584C131.677 158.613 130.199 157.487 128.845 156.222C128.622 156.014 128.4 155.8 128.184 155.586C123.925 151.34 121.159 145.827 120.302 139.874C119.444 133.922 120.541 127.852 123.428 122.576C126.315 117.301 130.835 113.104 136.311 110.617C141.786 108.131 147.921 107.488 153.793 108.785C159.665 110.083 164.958 113.251 168.876 117.813C172.794 122.375 175.126 128.086 175.521 134.087C175.916 140.088 174.353 146.055 171.067 151.091C167.782 156.128 162.95 159.963 157.299 162.019C157.197 162.056 157.092 162.094 156.987 162.131C154.034 163.166 150.926 163.692 147.797 163.689ZM147.797 109.596C142.59 109.597 137.5 111.142 133.172 114.037C128.844 116.931 125.472 121.045 123.483 125.857C121.494 130.669 120.978 135.963 122 141.069C123.022 146.175 125.535 150.863 129.223 154.539C129.427 154.74 129.638 154.944 129.852 155.144C131.135 156.342 132.534 157.408 134.028 158.328C134.329 158.513 134.613 158.68 134.895 158.839C136.407 159.69 138 160.39 139.65 160.927C139.942 161.023 140.231 161.11 140.509 161.189C145.756 162.694 151.341 162.538 156.495 160.741L156.793 160.633C162.606 158.517 167.487 154.421 170.58 149.064C173.673 143.708 174.78 137.432 173.706 131.341C172.632 125.249 169.446 119.73 164.708 115.754C159.97 111.777 153.982 109.597 147.797 109.596Z" fill="#CCCCCC"/>
<path d="M254.224 296.528H108.604C106.771 296.526 105.013 295.797 103.717 294.5C102.421 293.204 101.692 291.446 101.689 289.613V91.9279C101.692 90.0945 102.421 88.3369 103.717 87.0405C105.013 85.7442 106.771 85.015 108.604 85.0129H254.224C256.058 85.015 257.815 85.7442 259.112 87.0405C260.408 88.3369 261.137 90.0945 261.139 91.9279V289.613C261.137 291.446 260.408 293.204 259.112 294.5C257.815 295.797 256.058 296.526 254.224 296.528ZM108.604 85.8264C106.987 85.8283 105.436 86.4717 104.292 87.6155C103.148 88.7594 102.505 90.3102 102.503 91.9278V289.613C102.505 291.231 103.148 292.782 104.292 293.925C105.436 295.069 106.987 295.713 108.604 295.714H254.224C255.842 295.713 257.393 295.069 258.537 293.925C259.681 292.782 260.324 291.231 260.326 289.613V91.9279C260.324 90.3102 259.681 88.7594 258.537 87.6155C257.393 86.4717 255.842 85.8283 254.224 85.8264H108.604Z" fill="#3F3D56"/>
<path d="M226.034 136.356H184.828C183.964 136.356 183.134 136.012 182.523 135.401C181.912 134.79 181.568 133.96 181.568 133.096C181.568 132.231 181.912 131.402 182.523 130.791C183.134 130.18 183.964 129.836 184.828 129.836H226.034C226.898 129.836 227.727 130.18 228.339 130.791C228.95 131.402 229.293 132.231 229.293 133.096C229.293 133.96 228.95 134.79 228.339 135.401C227.727 136.012 226.898 136.356 226.034 136.356Z" fill="#3C65F5"/>
<path d="M239.48 147.358H184.828C183.964 147.358 183.134 147.014 182.523 146.403C181.912 145.791 181.568 144.962 181.568 144.098C181.568 143.233 181.912 142.404 182.523 141.793C183.134 141.181 183.964 140.838 184.828 140.838H239.48C240.345 140.838 241.174 141.181 241.785 141.793C242.397 142.404 242.74 143.233 242.74 144.098C242.74 144.962 242.397 145.791 241.785 146.403C241.174 147.014 240.345 147.358 239.48 147.358Z" fill="#3C65F5"/>
<path d="M225.974 189.554H123.348C122.483 189.554 121.654 189.211 121.043 188.6C120.431 187.988 120.088 187.159 120.088 186.295C120.088 185.43 120.431 184.601 121.043 183.99C121.654 183.378 122.483 183.035 123.348 183.035H225.974C226.838 183.035 227.668 183.378 228.279 183.99C228.89 184.601 229.234 185.43 229.234 186.295C229.234 187.159 228.89 187.988 228.279 188.6C227.668 189.211 226.838 189.554 225.974 189.554Z" fill="#CCCCCC"/>
<path d="M239.421 200.556H123.348C122.483 200.556 121.654 200.213 121.043 199.601C120.431 198.99 120.088 198.161 120.088 197.296C120.088 196.432 120.431 195.603 121.043 194.991C121.654 194.38 122.483 194.037 123.348 194.037H239.421C240.285 194.037 241.114 194.38 241.726 194.991C242.337 195.603 242.68 196.432 242.68 197.296C242.68 198.161 242.337 198.99 241.726 199.601C241.114 200.213 240.285 200.556 239.421 200.556Z" fill="#CCCCCC"/>
<path d="M225.974 225.843H123.348C122.484 225.842 121.656 225.498 121.045 224.887C120.435 224.275 120.092 223.447 120.092 222.583C120.092 221.719 120.435 220.891 121.045 220.279C121.656 219.668 122.484 219.324 123.348 219.323H225.974C226.838 219.323 227.667 219.667 228.279 220.278C228.89 220.889 229.234 221.718 229.234 222.583C229.234 223.448 228.89 224.277 228.279 224.888C227.667 225.499 226.838 225.843 225.974 225.843Z" fill="#CCCCCC"/>
<path d="M239.421 236.845H123.348C122.484 236.844 121.656 236.5 121.045 235.889C120.435 235.277 120.092 234.449 120.092 233.585C120.092 232.721 120.435 231.892 121.045 231.281C121.656 230.67 122.484 230.326 123.348 230.325H239.421C240.285 230.325 241.114 230.669 241.726 231.28C242.337 231.891 242.68 232.72 242.68 233.585C242.68 234.449 242.337 235.279 241.726 235.89C241.114 236.501 240.285 236.845 239.421 236.845Z" fill="#CCCCCC"/>
<path d="M225.974 262.131H123.348C122.483 262.131 121.654 261.788 121.043 261.177C120.431 260.565 120.088 259.736 120.088 258.871C120.088 258.007 120.431 257.178 121.043 256.566C121.654 255.955 122.483 255.612 123.348 255.612H225.974C226.838 255.612 227.668 255.955 228.279 256.566C228.89 257.178 229.234 258.007 229.234 258.871C229.234 259.736 228.89 260.565 228.279 261.177C227.668 261.788 226.838 262.131 225.974 262.131Z" fill="#CCCCCC"/>
<path d="M239.421 273.133H123.348C122.483 273.133 121.654 272.79 121.043 272.178C120.431 271.567 120.088 270.738 120.088 269.873C120.088 269.009 120.431 268.18 121.043 267.568C121.654 266.957 122.483 266.614 123.348 266.614H239.421C240.285 266.614 241.114 266.957 241.726 267.568C242.337 268.18 242.68 269.009 242.68 269.873C242.68 270.738 242.337 271.567 241.726 272.178C241.114 272.79 240.285 273.133 239.421 273.133Z" fill="#CCCCCC"/>
<path d="M252.534 251.513C248.314 251.509 244.133 252.336 240.232 253.948C236.332 255.56 232.787 257.925 229.801 260.908C226.814 263.89 224.445 267.433 222.829 271.332C221.213 275.231 220.381 279.41 220.381 283.631C220.381 287.851 221.213 292.031 222.829 295.93C224.445 299.829 226.814 303.371 229.8 306.354C232.787 309.337 236.331 311.702 240.232 313.314C244.133 314.926 248.313 315.753 252.534 315.748C261.042 315.733 269.197 312.343 275.208 306.321C281.219 300.3 284.595 292.139 284.595 283.631C284.595 275.123 281.219 266.962 275.208 260.94C269.197 254.919 261.043 251.528 252.534 251.513Z" fill="#3C65F5"/>
<path d="M249.488 296.969C248.642 296.971 247.819 296.697 247.143 296.19L247.101 296.159L238.269 289.402C237.444 288.769 236.904 287.833 236.768 286.802C236.632 285.77 236.911 284.727 237.544 283.901C238.177 283.076 239.112 282.535 240.144 282.398C241.175 282.262 242.219 282.54 243.045 283.172L248.766 287.559L262.284 269.923C262.598 269.514 262.989 269.171 263.435 268.913C263.881 268.655 264.373 268.488 264.884 268.42C265.395 268.353 265.914 268.386 266.412 268.52C266.91 268.653 267.376 268.883 267.785 269.196L267.786 269.197L267.702 269.313L267.789 269.197C268.613 269.831 269.153 270.766 269.289 271.798C269.425 272.829 269.147 273.872 268.514 274.699L252.613 295.434C252.245 295.912 251.772 296.298 251.231 296.564C250.69 296.829 250.094 296.966 249.491 296.965L249.488 296.969Z" fill="white"/>
</g>
<defs>
<clipPath id="clip0_527_2059">
<rect width="349" height="315.748" fill="white"/>
</clipPath>
</defs>
</svg>